<svg xmlns="http://www.w3.org/2000/svg" viewBox="0 0 731.79 731.79"><path d="M877.89,876.05v1.85H598.75C598,734.6,530.77,607,426.31,524.5c-.61-.49-1.23-1-1.84-1.44a451.21,451.21,0,0,0-278.36-96v-281H425.82v.23c0,144.11,67.26,272.52,172.1,355.52A451.27,451.27,0,0,0,665.2,546l.09.06.11,0c7,3.78,14.17,7.37,21.41,10.75C800,618.54,877,738.27,877.89,876.05Z" transform="translate(-146.11 -146.1)"/><path d="M877.89,146.1V512.81a364.87,364.87,0,0,1-183.13-49.64c-109-63.5-182.18-181.61-182.18-316.84v-.23Z" transform="translate(-146.11 -146.1)"/><path d="M512,877.9H146.11V513.83a364.84,364.84,0,0,1,181.61,48.41c.53.32,1.08.62,1.63,1C437.91,626.25,511.14,743.49,512,877.9Z" transform="translate(-146.11 -146.1)"/></svg>